<svg id="Layer_1" data-name="Layer 1" xmlns="http://www.w3.org/2000/svg" viewBox="0 0 105.79 27.39"><title>Untitled-1</title><path d="M5.46,28.93h-4V2.22H7.21L11,21.38l3.6-19.16h5.55V28.93h-4V12.15L12.6,28.93H9.37L5.46,12.19Z" transform="translate(-1.44 -1.88)"/><path d="M28.67,22.8l-1,6.14H23.5L28,2.22h5.55L38,28.93H33.82l-1-6.14ZM30.78,8.34,29.28,18.87h3Z" transform="translate(-1.44 -1.88)"/><path d="M45.47,28.93h-4V2.22h4Z" transform="translate(-1.44 -1.88)"/><path d="M60.06,28.93h-11V2.22h4V24.94h7Z" transform="translate(-1.44 -1.88)"/><path d="M62.81,28.93V2.22H74.28v4H66.84v7.32h5.43v4H66.84v7.31h7.44v4Z" transform="translate(-1.44 -1.88)"/><path d="M81.58,2.22l5.33,17.94V2.22h4V28.93H86.62L81.08,11.82V28.93h-4V2.22Z" transform="translate(-1.44 -1.88)"/><path d="M100.85,29.27a6.35,6.35,0,0,1-6.39-6.37V8.27a6.14,6.14,0,0,1,1.88-4.52,6.38,6.38,0,0,1,9,0,6.19,6.19,0,0,1,1.85,4.51v3h-4.17V8.19a2.33,2.33,0,0,0-2.33-2.33,2.2,2.2,0,0,0-1.63.68,2.26,2.26,0,0,0-.67,1.65V22.85a2.3,2.3,0,0,0,2.3,2.31,2.26,2.26,0,0,0,1.65-.67,2.22,2.22,0,0,0,.68-1.64V19.18h4.17V22.9a6.36,6.36,0,0,1-6.37,6.37Z" transform="translate(-1.44 -1.88)"/></svg>
